Coordinates
version=1
nRows=26
nColumns=24
inDegrees=yes

Units are S.I. units (second, meters, Newtons, ...)
Angles are in degrees.

endheader
time	pelvis_tilt	pelvis_list	pelvis_rotation	pelvis_tx	pelvis_ty	pelvis_tz	hip_flexion_r	hip_adduction_r	hip_rotation_r	knee_angle_r	ankle_angle_r	subtalar_angle_r	mtp_angle_r	hip_flexion_l	hip_adduction_l	hip_rotation_l	knee_angle_l	ankle_angle_l	subtalar_angle_l	mtp_angle_l	lumbar_extension	lumbar_bending	lumbar_rotation
      3.93500000	      9.29169035	      6.50060873	     -0.32497994	      0.16833769	      0.99433647	      0.06222074	      5.17709102	     -5.34232590	     -8.05962961	    -18.82315755	      3.45519469	     -5.36160401	     -3.00090382	      5.69294193	      5.54027468	     -4.65328536	    -60.54752276	      2.47964808	      4.44237039	     52.47158614	    -25.58579226	     -6.43280741	     -2.26674379
      3.94000000	      9.31930389	      6.50144291	     -0.38217143	      0.17315792	      0.99496558	      0.06253239	      4.74767137	     -5.31386722	     -8.06984906	    -18.65678809	      3.62674642	     -5.29348128	     -2.99942873	      6.26746407	      5.45529174	     -4.88585956	    -60.53508570	      2.76908020	      4.46704793	     52.44570568	    -25.63636179	     -6.49627343	     -2.29509923
      3.94500000	      9.33066574	      6.49899125	     -0.42893560	      0.17795968	      0.99553541	      0.06282371	      4.33186419	     -5.28242605	     -8.09630147	    -18.48224019	      3.79672735	     -5.24099245	     -3.01898462	      6.85054994	      5.36738792	     -5.10155957	    -60.47330960	      3.10646754	      4.56604008	     52.36246371	    -25.67126567	     -6.55279126	     -2.29450389
      3.95000000	      9.29251524	      6.49198799	     -0.46581026	      0.18274830	      0.99601481	      0.06315276	      3.97063334	     -5.23527746	     -8.09597775	    -18.30888828	      4.00775279	     -5.25751851	     -3.60242764	      7.48245679	      5.26068979	     -5.31897762	    -60.39182761	      3.56045263	      4.94827787	     50.65044243	    -25.65222035	     -6.61171841	     -2.27445657
      3.95500000	      9.29884391	      6.51060467	     -0.50619313	      0.18753683	      0.99654547	      0.06341963	      3.55146536	     -5.22521079	     -8.10266333	    -18.11563682	      4.16292432	     -5.22234564	     -3.60160467	      8.03831344	      5.19707846	     -5.53778592	    -60.19704873	      3.84288136	      4.94324350	     50.62189409	    -25.68503659	     -6.69045893	     -2.31054149
      3.96000000	      9.30474063	      6.53469299	     -0.54000021	      0.19232764	      0.99705606	      0.06371265	      3.12823101	     -5.21702033	     -8.11031075	    -17.91684218	      4.32089526	     -5.20759110	     -3.61055094	      8.57597533	      5.13495275	     -5.75011749	    -59.93962276	      4.14711548	      4.97357063	     50.54944354	    -25.71725841	     -6.78053780	     -2.33018985
      3.96500000	      9.40728588	      6.56368549	     -0.56652403	      0.19719452	      0.99771286	      0.06398656	      2.56653428	     -5.21530465	     -8.16529383	    -17.67222448	      4.52861060	     -5.17645952	     -4.00877567	      8.97018913	      5.07927031	     -5.94769920	    -59.60890072	      4.55044192	      5.21831005	     49.05361529	    -25.85132868	     -6.86893559	     -2.34548076
      3.97000000	      9.38297049	      6.60213270	     -0.59196260	      0.20193912	      0.99812386	      0.06423216	      2.18533371	     -5.22518342	     -8.16441140	    -17.48699579	      4.68093125	     -5.17092777	     -4.00445630	      9.51484438	      5.03409022	     -6.16632225	    -59.24216507	      4.82590797	      5.20978716	     49.02047042	    -25.85700615	     -6.97114583	     -2.38961207
      3.97500000	      9.47288173	      6.65873752	     -0.64369189	      0.20679224	      0.99872745	      0.06450319	      1.65095265	     -5.25956780	     -8.19501815	    -17.25653561	      4.86196853	     -5.07952810	     -4.17493492	      9.87755944	      5.00876990	     -6.39993451	    -58.76174620	      5.14873678	      5.28983300	     48.20367313	    -25.97555375	     -7.10068176	     -2.40913298
      3.98000000	      9.42992437	      6.70981951	     -0.63875987	      0.21152821	      0.99906912	      0.06469630	      1.28879827	     -5.28194279	     -8.21287306	    -17.08072497	      5.04452432	     -5.12419964	     -4.16389697	     10.40608298	      4.98747468	     -6.58216682	    -58.27390557	      5.40593952	      5.28663073	     48.16500471	    -25.96539256	     -7.20828966	     -2.45510023
      3.98500000	      9.49627792	      6.79166977	     -0.65168608	      0.21633055	      0.99958413	      0.06486853	      0.78578269	     -5.34915835	     -8.28815278	    -16.87093481	      5.25815474	     -5.04709342	     -4.31674573	     10.77007869	      5.00153206	     -6.78303935	    -57.69405171	      5.71471237	      5.39953081	     47.12201125	    -26.07083028	     -7.34888484	     -2.52171473
      3.99000000	      9.45618650	      6.84100976	     -0.65992161	      0.22104487	      0.99987928	      0.06504388	      0.43033502	     -5.37429736	     -8.30009169	    -16.70536660	      5.42869298	     -5.05938960	     -4.30065675	     11.25515812	      4.97736764	     -6.98717873	    -57.08876704	      5.95930871	      5.37757333	     47.08848542	    -26.06423566	     -7.45951006	     -2.54310072
      3.99500000	      9.54244381	      6.94628096	     -0.67864626	      0.22585378	      1.00039729	      0.06516702	     -0.09115309	     -5.47488605	     -8.39859559	    -16.50140309	      5.64186164	     -4.93275116	     -4.34496127	     11.54697392	      5.02407978	     -7.20004038	    -56.36426679	      6.16813584	      5.41465135	     46.44889913	    -26.19194715	     -7.62286384	     -2.60058820
      4.00000000	      9.48798366	      7.00174500	     -0.68107124	      0.23053848	      1.00062303	      0.06529351	     -0.41645065	     -5.51056327	     -8.41790584	    -16.36254574	      5.83200738	     -4.94884860	     -4.32408301	     12.00988863	      5.01292152	     -7.40371354	    -55.64571980	      6.37668697	      5.39907979	     46.39738546	    -26.17333476	     -7.73824449	     -2.62676400
      4.00500000	      9.54944392	      7.10967319	     -0.73148660	      0.23530891	      1.00104787	      0.06541600	     -0.88106261	     -5.62144395	     -8.49112460	    -16.20025906	      6.06969552	     -4.77524814	     -4.30596854	     12.28909555	      5.06012921	     -7.66152910	    -54.80357010	      6.51302844	      5.36398789	     46.03225146	    -26.27486280	     -7.91691069	     -2.62634030
      4.01000000	      9.49083057	      7.17988536	     -0.70513295	      0.23997734	      1.00123159	      0.06547024	     -1.20128136	     -5.67461714	     -8.53775550	    -16.06879652	      6.25375968	     -4.81725661	     -4.28714586	     12.71633326	      5.07750215	     -7.83740784	    -53.97011561	      6.65788116	      5.39107824	     45.95407519	    -26.25969035	     -8.03599971	     -2.69869578
      4.01500000	      9.56416531	      7.28930425	     -0.74426445	      0.24474734	      1.00162660	      0.06549810	     -1.67749556	     -5.79524735	     -8.62309185	    -15.91374801	      6.50407836	     -4.61368010	     -4.25572810	     12.93704531	      5.14460037	     -8.07446764	    -53.00962119	      6.73990689	      5.36835992	     45.58104712	    -26.37620520	     -8.20335536	     -2.69766754
      4.02000000	      9.56946267	      7.37925579	     -0.74518198	      0.24946796	      1.00188384	      0.06551140	     -2.06692212	     -5.88502938	     -8.71172947	    -15.78460144	      6.72663865	     -4.52336118	     -4.23232479	     13.22858362	      5.19064574	     -8.28479806	    -52.02828868	      6.81972897	      5.40019053	     45.24363918	    -26.42573245	     -8.34541323	     -2.74487688
      4.02500000	      9.50393460	      7.44807686	     -0.71780073	      0.25413072	      1.00198700	      0.06550274	     -2.36253086	     -5.94364389	     -8.78162447	    -15.68338181	      6.90827710	     -4.56224235	     -4.21070568	     13.59426603	      5.21700480	     -8.47210591	    -51.02501744	      6.88286913	      5.44697496	     45.15153347	    -26.40699399	     -8.46063545	     -2.81034641
      4.03000000	      9.58614349	      7.54597332	     -0.75302017	      0.25890838	      1.00231494	      0.06547862	     -2.84033188	     -6.05719788	     -8.88927541	    -15.54498386	      7.16700210	     -4.33789927	     -4.16514250	     13.73385330	      5.28285836	     -8.71343715	    -49.89742112	      6.88925838	      5.43268942	     44.80527875	    -26.53393585	     -8.61323915	     -2.80200352
      4.03500000	      9.50378767	      7.60899923	     -0.71982908	      0.26356304	      1.00234034	      0.06542891	     -3.10850100	     -6.11152526	     -8.95490349	    -15.46025132	      7.35454999	     -4.37462629	     -4.14055336	     14.07307437	      5.31129037	     -8.90071387	    -48.78716427	      6.87347432	      5.51909827	     44.71161447	    -26.49903696	     -8.71994025	     -2.87566726
      4.04000000	      9.47677602	      7.70627206	     -0.74197917	      0.26826624	      1.00243821	      0.06538346	     -3.43083880	     -6.21757524	     -9.00672209	    -15.37794554	      7.57722430	     -4.30626484	     -4.10237236	     14.30146959	      5.37984835	     -9.13981546	    -47.57363433	      6.81263586	      5.58137168	     44.58452720	    -26.51608335	     -8.87390308	     -2.89037138
      4.04500000	      9.48095403	      7.78281599	     -0.76174928	      0.27298719	      1.00253908	      0.06532943	     -3.79343936	     -6.30240017	     -9.07403087	    -15.28812962	      7.81356517	     -4.20210912	     -4.05900196	     14.46928443	      5.42989713	     -9.38009697	    -46.30819818	      6.72516818	      5.64047831	     44.44034838	    -26.56618100	     -9.00536653	     -2.90759067
      4.05000000	      9.61103289	      7.85581005	     -0.79647793	      0.27779600	      1.00281216	      0.06522365	     -4.32565517	     -6.39394770	     -9.19536718	    -15.14848316	      8.07779189	     -3.96368791	     -4.00224152	     14.44886387	      5.49458230	     -9.62065976	    -44.95388494	      6.63889515	      5.64847418	     44.18110605	    -26.74668773	     -9.12313274	     -2.90263017
      4.05500000	      9.62958532	      7.92552408	     -0.79618176	      0.28255428	      1.00287927	      0.06510563	     -4.71692061	     -6.47151600	     -9.29790685	    -15.04473663	      8.29696244	     -3.86428574	     -3.96237611	     14.54377942	      5.55412305	     -9.84692533	    -43.57656146	      6.50788980	      5.75529329	     43.98277772	    -26.81400097	     -9.23618768	     -2.94898867
      4.06000000	      9.61136756	      7.98943508	     -0.81684584	      0.28727625	      1.00283891	      0.06500627	     -5.04440528	     -6.54253995	     -9.33204796	    -14.97289668	      8.54273529	     -3.80903206	     -3.92112586	     14.65982149	      5.60370768	    -10.10560687	    -42.15710996	      6.35430835	      5.87657938	     43.87494184	    -26.84279018	     -9.35258238	     -3.01091263
